<svg width="526" height="569" viewBox="0 0 526 569" fill="none" xmlns="http://www.w3.org/2000/svg">
<path d="M352.942 23.4277C387.813 57.7189 391.751 132.319 420.49 183.671C449.229 235.024 502.74 263.018 519.667 307.629C536.566 352.128 516.85 413.134 482.106 466.794C447.444 520.3 397.753 566.461 348.883 568.061C299.902 569.705 251.714 526.676 196.737 507.947C141.731 489.106 79.937 494.565 42.4568 467.526C4.89505 440.641 -8.43453 381.412 6.24167 329.572C20.9179 277.732 63.4888 233.324 98.1512 179.818C132.895 126.158 159.619 63.4424 205.954 29.1102C252.289 -5.22205 318.042 -10.9747 352.942 23.4277Z" fill="url(#paint0_linear)"/>
<defs>
<linearGradient id="paint0_linear" x1="19.3833" y1="214.267" x2="406.104" y2="497.104" gradientUnits="userSpaceOnUse">
<stop stop-color="#FEA653"/>
<stop offset="1" stop-color="#F8B653"/>
</linearGradient>
</defs>
</svg>
