<svg width="317" height="317" viewBox="0 0 317 317" fill="none" xmlns="http://www.w3.org/2000/svg">
<path d="M229.22 126.921C191.406 137.219 155.342 92.9615 181.436 66.8676C192.69 55.6134 210.867 54.3106 225.99 60.7599C260.917 75.6565 261.691 118.084 229.22 126.921Z" fill="#FFFEFD" fill-opacity="0.2"/>
<path d="M199.54 146.655C228.404 117.792 285.923 158.027 266.538 193.484C257.704 209.637 234.716 215.062 214.1 203.572C190.987 190.698 183.314 162.881 199.54 146.655Z" fill="#FFFEFD" fill-opacity="0.2"/>
<path d="M105.114 67.0749C102.21 72.1883 95.8082 80.0142 88.4646 87.5635C80.7082 95.5497 71.9046 103.228 65.1005 107.088C46.6986 117.489 36.7821 146.763 61.184 162.566C83.7449 177.173 96.9753 161.826 117.966 176.059C139.17 190.453 160.992 185.813 173.181 172.28C184.461 159.754 187.486 139.609 174.104 119.913C159.839 98.9296 175.167 85.7388 160.56 63.1899C144.757 38.7561 115.494 48.7663 105.114 67.0749Z" fill="#FFFEFD" fill-opacity="0.2"/>
<path d="M148.74 197.452C156.904 189.287 168.645 187.004 179.778 190.345C212.881 200.283 223.649 249.097 195.551 264.435C160.025 283.846 119.893 226.299 148.74 197.452Z" fill="#FFFEFD" fill-opacity="0.2"/>
<path d="M102.753 177.557C134.633 190.902 140.288 240.491 110.616 252.781C74.8767 267.585 40.8756 211.292 68.6631 183.504C77.5807 174.586 90.6337 172.483 102.753 177.557Z" fill="#FFFEFD" fill-opacity="0.2"/>
</svg>
