<svg width="18" height="14" viewBox="0 0 18 14" fill="none" xmlns="http://www.w3.org/2000/svg">
<path d="M17.9948 3.9228C17.8909 1.72308 16.2648 0 14.2928 0H3.70685C1.73507 0 0.10916 1.72308 0.00527345 3.92276C0.00175782 3.9956 0 12.1069 0 12.1069C0 13.1507 0.759377 14 1.69278 14H16.3068C17.2404 14 18 13.1508 18 12.1069C18 12.1069 17.9983 3.99603 17.9948 3.9228ZM3.70685 0.875005H14.2928C15.7079 0.875005 16.8972 1.99937 17.1623 3.50831H16.3574C16.1053 2.47577 15.2704 1.74985 14.293 1.74985H9.1662C8.95013 1.74985 9.55749 1.94576 9.55749 2.18734C9.55749 2.42891 8.95013 2.62482 9.1662 2.62482H14.293C14.837 2.62482 15.3116 2.97909 15.528 3.50827H15.1385C14.1625 3.50827 13.3621 4.36484 13.3074 5.44094C11.9396 4.95822 10.4697 4.7168 8.99991 4.7168C7.53013 4.7168 6.06035 4.95818 4.6927 5.4409C4.63793 4.36484 3.83742 3.50827 2.86127 3.50827H2.47174C2.68809 2.97913 3.1627 2.62482 3.70678 2.62482H9.1662C9.38227 2.62482 9.55749 2.42891 9.55749 2.18734C9.55749 1.94576 9.38227 1.74985 9.1662 1.74985H3.70678C2.72936 1.74985 1.89443 2.47577 1.64236 3.50831H0.83774C1.10282 1.99937 2.29195 0.875005 3.70685 0.875005ZM13.3044 6.36044V7.84611C13.3044 8.49432 12.8325 9.02166 12.2525 9.02166H5.74711C5.16735 9.02166 4.69569 8.49428 4.69569 7.84611V6.36044C7.41155 5.3336 10.5882 5.3336 13.3044 6.36044ZM17.2174 12.1069C17.2174 12.6682 16.8089 13.125 16.3068 13.125H1.69278C1.19089 13.125 0.782615 12.6683 0.782615 12.1069V11.8107V11.3732V10.9357V4.38332H2.86123C3.44124 4.38332 3.91307 4.9107 3.91307 5.55882V7.84608C3.91307 8.97681 4.73584 9.89662 5.74711 9.89662H12.8572C13.3074 9.89662 14.0869 9.34375 14.0869 7.84611V5.55886C14.0869 4.9107 14.5586 4.38336 15.1383 4.38336H17.2174L17.2174 12.1069Z" fill="#777777"/>
</svg>
