<svg width="16" height="18" viewBox="0 0 16 18" fill="none" xmlns="http://www.w3.org/2000/svg">
<path d="M15.1174 15.3134H10.1675V2.6867H12.104V7.68131C11.5221 7.81455 11.0852 8.35506 11.0852 9.00004C11.0852 9.7447 11.6673 10.3505 12.3829 10.3505C13.0984 10.3505 13.6806 9.74474 13.6806 9.00004C13.6806 8.35506 13.2437 7.81455 12.6619 7.68131V2.6867H14.3628C14.8495 2.6867 15.2454 2.27463 15.2454 1.76815V0.918546C15.2454 0.412066 14.8495 0 14.3628 0H1.63721C1.15054 0 0.754593 0.412066 0.754593 0.918546V1.76811C0.754593 2.27463 1.15054 2.68666 1.63721 2.68666H5.8325V15.3133H0.882621C0.39595 15.3133 0 15.7254 0 16.2319V17.0815C0 17.588 0.39595 18 0.882621 18H15.1174C15.6041 18 16 17.5879 16 17.0815V16.2319C16 15.7254 15.6041 15.3134 15.1174 15.3134ZM13.1226 9.00004C13.1226 9.42453 12.7908 9.7699 12.3829 9.7699C11.975 9.7699 11.6431 9.42453 11.6431 9.00004C11.6431 8.57555 11.975 8.23018 12.3829 8.23018C12.7908 8.23018 13.1226 8.57555 13.1226 9.00004ZM1.63721 1.76815V0.918546C1.63721 0.732235 1.91026 0.667969 2.08929 0.667969H14.1753C14.3543 0.667969 14.5 0.732235 14.5 0.918546V1.76811C14.5 1.95442 14.3543 2.00391 14.1753 2.00391H2.08929C1.91026 2.00395 1.63721 1.95446 1.63721 1.76815ZM6.55357 13.2525H6.86606C6.86606 13.2525 7.14503 13.1226 7.14503 12.9622C7.14503 12.8018 7.02013 12.6719 6.86606 12.6719H6.55357V10.6111H9.49714C9.65124 10.6111 10.5938 10.4461 9.85332 10.2858C10.5938 10.1254 9.65124 10.0305 9.49714 10.0305H6.55357V7.96958H9.13397C9.28804 7.96958 8.855 7.83963 8.855 7.67926C8.855 7.51888 9.28804 7.38894 9.13397 7.38894L6.55357 7.38894V2.6867L9.49714 2.68666V4.74745L6.31014 4.74745C6.15608 4.74745 6.31014 4.71703 6.31014 4.8774C6.31014 5.3281 6.14701 5.32814 6.14701 5.32814L9.49714 5.3281V7.3889L9.13397 7.38894C8.97987 7.38894 8.855 7.51888 8.855 7.67926C8.855 7.83963 8.97987 7.96958 9.13397 7.96958L9.49714 7.96955V10.3207V12.6719L6.86606 12.6719C6.712 12.6719 7.14503 12.8018 7.14503 12.9622C7.14503 13.1226 6.712 13.2525 6.86606 13.2525L9.49714 13.2525V15.3133L6.55357 15.3133V13.2525ZM15.3176 17.0815C15.3176 17.2678 15.0362 17.3145 14.8571 17.3145H1.03897C0.859945 17.3145 0.714286 17.2678 0.714286 17.0815V16.232C0.714286 16.0457 0.859945 15.9961 1.03897 15.9961H14.9928C15.1719 15.9961 15.3175 16.0457 15.3175 16.232L15.3176 17.0815Z" fill="#777777"/>
</svg>
