<svg width="18" height="18" viewBox="0 0 18 18" fill="none" xmlns="http://www.w3.org/2000/svg">
<path d="M18 9C18 11.404 17.0638 13.6641 15.364 15.364C13.6641 17.0638 11.404 18 9 18C7.31711 18 5.70505 17.5406 4.30601 16.6823L5.33784 15.6504C6.42452 16.2512 7.67292 16.5938 9 16.5938C13.1872 16.5938 16.5938 13.1872 16.5938 9C16.5938 7.67292 16.2512 6.42452 15.6504 5.33788L16.6823 4.30604C17.5406 5.70505 18 7.31711 18 9ZM1.02452 17.9698L0.0301641 16.9755L2.1581 14.8475C0.76173 13.2189 0 11.1681 0 9C0 6.59602 0.936176 4.33593 2.63602 2.63602C4.33593 0.936176 6.59602 0 9 0C11.1681 0 13.2189 0.76173 14.8475 2.1581L16.9755 0.0301641L17.9698 1.02452L1.02452 17.9698ZM3.15889 13.8467L13.8467 3.15889C12.5308 2.06504 10.841 1.40625 9 1.40625C4.81279 1.40625 1.40625 4.81279 1.40625 9C1.40625 10.841 2.06501 12.5308 3.15889 13.8467Z" fill="#777777"/>
</svg>
