<svg width="18" height="18" viewBox="0 0 18 18" fill="none" xmlns="http://www.w3.org/2000/svg">
<path d="M16.3435 14.6859H11.8023C14.1546 13.3235 15.7407 10.7788 15.7407 7.87025C15.7407 3.53062 12.2099 0 7.87033 0C3.53059 0 0 3.53062 0 7.87025C0 12.21 3.53059 15.7406 7.87033 15.7406H16.3435C16.6753 15.7406 16.9453 16.0106 16.9453 16.3435C16.9453 16.676 16.6763 16.9453 16.3435 16.9453H9C8.70872 16.9453 8.47266 17.1814 8.47266 17.4727C8.47266 17.7639 8.70872 18 9 18H16.3435C17.2492 18 18 17.269 18 16.3424C18 15.429 17.2569 14.6859 16.3435 14.6859ZM7.87033 14.6859C7.57535 14.6859 7.28462 14.667 6.99939 14.6305L12.762 11.3035L13.4892 11.7233C12.2594 13.5112 10.1996 14.6859 7.87033 14.6859ZM4.04778 13.5103L10.3162 9.89134L11.7073 10.6946L5.51857 14.2676C4.99535 14.0747 4.50206 13.8191 4.04778 13.5103ZM3.50601 2.63962C3.9294 2.28572 4.39618 1.98209 4.89716 1.73819V8.97796L3.50601 9.7812V2.63962ZM5.95184 1.33004C6.39844 1.19875 6.86371 1.11169 7.34299 1.07488V7.56579L5.95184 8.36904V1.33004ZM14.686 7.87025C14.686 8.0356 14.6797 8.19943 14.6681 8.3619L8.39767 4.7416V3.13525L14.5864 6.7083C14.6516 7.0861 14.686 7.47419 14.686 7.87025ZM8.39767 5.95944L14.4937 9.47894C14.381 9.94311 14.2208 10.389 14.0183 10.8109L8.39767 7.56579V5.95944ZM14.1593 5.24395L8.39767 1.9174V1.07488C10.9976 1.27484 13.1936 2.9401 14.1593 5.24395ZM2.45132 3.74183V10.3901L1.72238 10.8109C1.2946 9.92018 1.05469 8.92275 1.05469 7.87025C1.05469 6.31952 1.57571 4.8884 2.45132 3.74183ZM2.25151 11.7233L7.87033 8.47917L9.26147 9.28242L3.16859 12.8001C2.82719 12.4742 2.51971 12.1133 2.25151 11.7233Z" fill="#777777"/>
</svg>
