<svg width="1197" height="1077" viewBox="0 0 1197 1077" fill="none" xmlns="http://www.w3.org/2000/svg">
<path d="M795.185 47.5236C875.35 113.93 886.007 255.128 952.599 353.507C1019.19 451.886 1141.65 507.235 1181.2 592.334C1220.67 677.221 1177.18 791.645 1099.3 891.502C1021.6 991.072 909.524 1076.07 798.305 1076.88C686.834 1077.76 576.153 994.232 450.57 956.33C324.918 918.215 184.364 925.727 98.4245 872.911C12.3026 820.383 -19.3872 707.815 12.8476 610.487C45.0824 513.159 140.99 431.147 218.687 331.577C296.566 231.72 355.982 114.381 460.687 51.5869C565.392 -11.2074 714.951 -19.0942 795.185 47.5236Z" fill="url(#paint0_linear)"/>
<defs>
<linearGradient id="paint0_linear" x1="40.1484" y1="393.119" x2="811.822" y2="1075.54" gradientUnits="userSpaceOnUse">
<stop stop-color="#FEA653"/>
<stop offset="1" stop-color="#F8B653"/>
</linearGradient>
</defs>
</svg>
