<svg width="18" height="18" viewBox="0 0 18 18" fill="none" xmlns="http://www.w3.org/2000/svg">
<path d="M17.8455 8.06232L10.3373 0.553986C9.98039 0.196793 9.50551 0 9 0C8.49449 0 8.01961 0.196793 7.66296 0.553848L0.154495 8.06232C0.0554809 8.16119 0 8.29536 0 8.4353C0 8.5751 0.0556183 8.70927 0.154633 8.80829C0.154633 8.80829 0.408417 9.0618 0.719467 9.37285C1.3163 9.96982 2.13835 10.1106 2.82431 9.90884V17.4727C2.82431 17.7639 3.06038 18 3.35165 18H14.6485C14.9396 18 15.1758 17.7639 15.1758 17.4727V9.90884C15.8616 10.1106 16.6838 9.96982 17.2804 9.37285C17.5916 9.0618 17.8454 8.80829 17.8454 8.80829C17.9442 8.70927 18 8.57524 18 8.4353C18 8.29536 17.9445 8.16119 17.8455 8.06232ZM14.1211 9.21849V14.686H11.7867V11.2593C11.7867 9.72029 10.5419 8.47266 9 8.47266C7.46068 8.47266 6.21332 9.71741 6.21332 11.2593V14.686H3.87886V9.21849L9 4.09735L14.1211 9.21849ZM3.87886 15.7407H6.21332V16.9453H3.87886V15.7407ZM7.26801 16.9453V11.2593C7.26801 10.3046 8.03966 9.52734 9 9.52734C9.95677 9.52734 10.732 10.3011 10.732 11.2593V16.9453H7.26801ZM11.7867 16.9453V15.7407H14.1211V16.9453H11.7867ZM16.5346 8.62715C16.1169 9.04504 15.4399 9.04559 15.0216 8.62715C15.0183 8.62386 15.0147 8.62042 15.0113 8.61713L9.37285 2.97867C9.16699 2.77267 8.83301 2.77267 8.62715 2.97867L2.98869 8.61713C2.98512 8.62042 2.98169 8.62372 2.97839 8.62715C2.56064 9.04504 1.88361 9.04573 1.4653 8.62715C1.39801 8.55972 1.33333 8.49504 1.27332 8.43503L8.40894 1.29941C8.73468 0.973251 9.2645 0.972427 9.59134 1.29955L16.7267 8.43503C16.6667 8.49504 16.602 8.55972 16.5346 8.62715Z" fill="#777777"/>
</svg>
